<svg width="32" height="32" viewBox="0 0 32 32" fill="none" xmlns="http://www.w3.org/2000/svg">
<path d="M12.3449 6.3429V8.8106H6.93815V11.1951H5.15845V18.5226H26.8424V11.1951H24.9949V8.8106H19.6559V6.3429H12.3449ZM10.5652 13.7536H14.1245V16.1381H10.5652V13.7536ZM17.8759 13.7536H21.4352V16.1381H17.8759V13.7536ZM10.5652 18.5226L10.5595 20.9978H8.71775V23.3823H5.15845V25.8576H8.71775V23.4656H12.3392V20.9979H14.1867V18.5226H10.5652ZM14.1867 20.9979L14.1866 23.4655H17.8081V20.9978L14.1867 20.9979ZM17.8081 20.9978H19.5934V23.4656H23.2149V20.9146H21.4352V18.5226H17.8081V20.9978ZM23.2149 23.4656V25.8576H26.842V23.3823H23.2149V23.4656Z" fill="#204A87"/>
</svg>
